<svg width="69" height="69" viewBox="0 0 69 69" fill="none" xmlns="http://www.w3.org/2000/svg">
<circle cx="34.5" cy="34.5" r="34.5" fill="#387F49"/>
<path d="M4.12264 34.2402C6.31328 37.2913 9.27306 38.5409 12.9929 37.9851C17.3879 37.3285 20.816 29.7387 20.816 29.7387C20.816 29.7387 21.939 27.1738 21.939 25.5777C21.939 22.1096 19.9364 19.2983 17.466 19.2983C14.9956 19.2983 12.9929 22.1096 12.9929 25.5777C12.9929 27.1738 13.4171 28.6308 14.1159 29.7387C14.1159 29.7387 17.3331 35.148 20.816 36.0559C27.2932 37.7444 32.1188 23.1945 32.1188 23.1945C32.1188 23.1945 33.0837 20.7702 33.0837 19.2983C33.0837 15.8302 31.0811 13.0189 28.6107 13.0189C26.1403 13.0189 24.1376 15.8302 24.1376 19.2983C24.1376 20.7702 24.4984 22.1239 25.1026 23.1945C25.1026 23.1945 29.158 32.7754 34.3346 32.6893C39.4295 32.6044 43.2635 23.1945 43.2635 23.1945C43.2635 23.1945 44.2284 20.7702 44.2284 19.2983C44.2284 15.8302 42.2258 13.0189 39.7554 13.0189C37.285 13.0189 35.2823 15.8302 35.2823 19.2983C35.2823 20.7702 36.0784 23.1945 36.0784 23.1945C36.0784 23.1945 40.0651 36.869 46.427 36.0559C50.3253 35.5577 53.8189 29.7387 53.8189 29.7387C53.8189 29.7387 55.3731 27.1738 55.3731 25.5777C55.3731 22.1096 53.3705 19.2983 50.9001 19.2983C48.4297 19.2983 46.427 22.1096 46.427 25.5777C46.427 27.1738 47.55 29.7387 47.55 29.7387C47.55 29.7387 50.994 37.2305 55.3731 37.9851C59.2279 38.6494 62.3502 37.3903 64.6604 34.2402M34.3402 36.3964C34.3402 36.3964 25.6398 41.0916 23.5396 46.0803C21.4395 51.9493 24.4397 55.7641 28.3399 55.7641C32.0002 55.7641 34.3402 50.482 34.3402 50.482C34.3402 50.482 36.4541 55.7641 40.0405 55.7641C44.2407 55.7641 47.5409 51.6558 44.8407 46.0803C42.7406 41.0916 34.3402 36.3964 34.3402 36.3964Z" stroke="#F1FFF2" stroke-width="3" stroke-linecap="round"/>
</svg>
